<svg id="Layer_1" data-name="Layer 1" xmlns="http://www.w3.org/2000/svg" viewBox="0 0 371.78 125.32"><defs><style>.cls-1{fill:#f32735;}.cls-2{fill:#fff;}.cls-3,.cls-4{fill:#414042;}.cls-3{fill-rule:evenodd;}</style></defs><rect class="cls-1" x="25.06" y="25.11" width="75.19" height="75.19" rx="6.85"/><path class="cls-2" d="M40.81,62a26.69,26.69,0,0,1,53.36,0H92.85a20.57,20.57,0,0,0-41.14,0ZM28.42,62A34.25,34.25,0,0,1,96.9,62H95.5a28.06,28.06,0,0,0-56.1,0ZM53.1,62a19.2,19.2,0,0,1,38.39,0H90.07c0-.16,0-.32,0-.48a13.72,13.72,0,0,0-27.43,0V62ZM72.22,63.4a19.19,19.19,0,0,1-38.38,0h1.41c0,.15,0,.31,0,.47a13.72,13.72,0,1,0,27.44,0c0-.16,0-.32,0-.47Zm24.68,0a34.25,34.25,0,0,1-68.48,0h1.41a28.06,28.06,0,0,0,56.09,0Zm-12.39,0a26.69,26.69,0,0,1-53.35,0h1.32a20.57,20.57,0,0,0,41.13,0Z"/><path class="cls-3" d="M124.91,44v6.32h-5.42V62.41a34.31,34.31,0,0,0,.14,4.29,1.92,1.92,0,0,0,.71,1,2.33,2.33,0,0,0,1.35.39,10.14,10.14,0,0,0,3.19-.76l.68,6.15a15.77,15.77,0,0,1-6.26,1.18,10.15,10.15,0,0,1-3.87-.7,5.93,5.93,0,0,1-2.54-1.86,7.76,7.76,0,0,1-1.1-3.11,38.42,38.42,0,0,1-.25-5.58V50.34H107.9V44h3.64v-6l7.95-4.63V44Z"/><rect class="cls-4" x="128.62" y="32.62" width="7.93" height="7.33"/><path class="cls-3" d="M136.54,44v29a29.28,29.28,0,0,1-.76,8.06,6.53,6.53,0,0,1-2.87,3.7,10.12,10.12,0,0,1-5.42,1.32,16,16,0,0,1-2.57-.22,25.81,25.81,0,0,1-2.93-.62l1.38-6.77c.38.07.73.13,1.07.17a5.9,5.9,0,0,0,.91.08,3.42,3.42,0,0,0,2-.53,2.45,2.45,0,0,0,1-1.24,20.39,20.39,0,0,0,.26-4.41V44Z"/><rect class="cls-4" x="141.95" y="32.62" width="7.93" height="7.33"/><rect class="cls-4" x="141.95" y="44.02" width="7.93" height="29.96"/><polygon class="cls-3" points="160.69 73.98 151.22 44.02 158.92 44.02 164.53 63.65 169.69 44.02 177.34 44.02 182.33 63.65 188.05 44.02 195.87 44.02 186.25 73.98 178.63 73.98 173.47 54.71 168.39 73.98 160.69 73.98"/><rect class="cls-4" x="197.15" y="32.62" width="7.93" height="7.33"/><rect class="cls-4" x="197.15" y="44.02" width="7.93" height="29.96"/><polygon class="cls-3" points="216.36 73.98 216.36 32.63 224.28 32.63 224.28 54.57 233.56 44.02 243.32 44.02 233.09 54.97 244.06 73.98 235.51 73.98 227.98 60.52 224.28 64.39 224.28 73.98 216.36 73.98"/><rect class="cls-4" x="245.88" y="32.62" width="7.93" height="7.33"/><rect class="cls-4" x="245.88" y="44.02" width="7.93" height="29.96"/><path class="cls-3" d="M258.45,44h7.3v4.09q3.93-4.77,9.34-4.77a10,10,0,0,1,5,1.19,9.07,9.07,0,0,1,3.47,3.58,13.89,13.89,0,0,1,4.26-3.58,10.44,10.44,0,0,1,4.88-1.19,10.84,10.84,0,0,1,5.59,1.36,8.11,8.11,0,0,1,3.41,3.92,17.18,17.18,0,0,1,.82,6.2V74h-7.93V56.85c0-3-.27-4.88-.82-5.75a3.74,3.74,0,0,0-3.38-1.69,5.42,5.42,0,0,0-3.13,1,5.65,5.65,0,0,0-2.12,3,21.37,21.37,0,0,0-.65,6.18V74h-7.92V57.56a22.28,22.28,0,0,0-.43-5.64A3.53,3.53,0,0,0,274.81,50a4.12,4.12,0,0,0-2.4-.62,5.77,5.77,0,0,0-3.3,1A5.4,5.4,0,0,0,267,53.24a21.37,21.37,0,0,0-.63,6.18V74h-7.92Z"/><rect class="cls-4" x="307.52" y="32.62" width="7.93" height="7.33"/><rect class="cls-4" x="307.52" y="44.02" width="7.93" height="29.96"/><path class="cls-3" d="M326.6,53.16l-7.19-1.3a11.24,11.24,0,0,1,4.17-6.43q3-2.09,8.8-2.09c3.54,0,6.17.43,7.9,1.27a7.72,7.72,0,0,1,3.64,3.19Q345,49.72,345,54.88l-.08,9.25a34.16,34.16,0,0,0,.36,5.84,18.28,18.28,0,0,0,1.44,4h-7.84c-.21-.53-.46-1.31-.76-2.34-.13-.47-.23-.78-.28-.94a14.29,14.29,0,0,1-4.35,3,12.54,12.54,0,0,1-4.93,1,10.24,10.24,0,0,1-7.31-2.51,8.35,8.35,0,0,1-2.65-6.34,8.45,8.45,0,0,1,1.21-4.52,7.82,7.82,0,0,1,3.39-3,25.65,25.65,0,0,1,6.32-1.86,43.76,43.76,0,0,0,7.7-2v-.79a4.06,4.06,0,0,0-1.13-3.24q-1.12-1-4.26-1a5.63,5.63,0,0,0-3.3.84A5.74,5.74,0,0,0,326.6,53.16Zm10.61,6.43q-1.53.51-4.83,1.21a14.09,14.09,0,0,0-4.31,1.39A3.28,3.28,0,0,0,326.52,65a3.88,3.88,0,0,0,1.24,2.88,4.35,4.35,0,0,0,3.16,1.21A6.87,6.87,0,0,0,335,67.66,5,5,0,0,0,336.9,65a15.92,15.92,0,0,0,.31-3.86Z"/><path class="cls-3" d="M111.54,88.31h3v1.76a4.35,4.35,0,0,1,1.55-1.46,4.27,4.27,0,0,1,2.18-.57,4.59,4.59,0,0,1,3.55,1.64,6.62,6.62,0,0,1,1.45,4.56,6.88,6.88,0,0,1-1.46,4.67,4.58,4.58,0,0,1-3.56,1.66,4,4,0,0,1-1.81-.4,6.14,6.14,0,0,1-1.69-1.35v6h-3.17Zm3.14,5.79a4.59,4.59,0,0,0,.8,3,2.44,2.44,0,0,0,2,1,2.29,2.29,0,0,0,1.84-.88,4.57,4.57,0,0,0,.73-2.91,4.36,4.36,0,0,0-.75-2.8,2.35,2.35,0,0,0-1.88-.91,2.45,2.45,0,0,0-1.93.9A4,4,0,0,0,114.68,94.1ZM127,92l-2.87-.52a4.43,4.43,0,0,1,1.67-2.57,6.07,6.07,0,0,1,3.52-.84,7.49,7.49,0,0,1,3.16.51,3.07,3.07,0,0,1,1.45,1.27,6.41,6.41,0,0,1,.43,2.84l0,3.7a13.27,13.27,0,0,0,.15,2.34,6.74,6.74,0,0,0,.57,1.6h-3.14c-.08-.21-.18-.52-.3-.94l-.11-.37a5.77,5.77,0,0,1-1.74,1.18,4.9,4.9,0,0,1-2,.4,4.09,4.09,0,0,1-2.92-1A3.34,3.34,0,0,1,123.76,97a3.42,3.42,0,0,1,.48-1.81A3.22,3.22,0,0,1,125.6,94a10.7,10.7,0,0,1,2.53-.74,17.46,17.46,0,0,0,3.08-.78v-.32a1.64,1.64,0,0,0-.45-1.3,2.71,2.71,0,0,0-1.71-.39,2.23,2.23,0,0,0-1.32.34A2.33,2.33,0,0,0,127,92Zm4.25,2.57a19.07,19.07,0,0,1-1.93.49,5.94,5.94,0,0,0-1.73.55,1.33,1.33,0,0,0-.62,1.12,1.56,1.56,0,0,0,.5,1.15,1.74,1.74,0,0,0,1.26.48,2.73,2.73,0,0,0,1.64-.56,2,2,0,0,0,.75-1,5.87,5.87,0,0,0,.13-1.55Zm5-6.23h3v1.76a4.3,4.3,0,0,1,1.56-1.46A4.25,4.25,0,0,1,142.9,88a4.57,4.57,0,0,1,3.54,1.64,6.63,6.63,0,0,1,1.46,4.56,6.83,6.83,0,0,1-1.47,4.67,4.57,4.57,0,0,1-3.56,1.66,4,4,0,0,1-1.8-.4,6,6,0,0,1-1.7-1.35v6H136.2Zm3.14,5.79a4.65,4.65,0,0,0,.8,3,2.47,2.47,0,0,0,2,1,2.27,2.27,0,0,0,1.84-.88,4.56,4.56,0,0,0,.74-2.91,4.29,4.29,0,0,0-.76-2.8,2.33,2.33,0,0,0-1.87-.91,2.42,2.42,0,0,0-1.93.9A4,4,0,0,0,139.34,94.1Zm16.86,2.38,3.16.53a5.24,5.24,0,0,1-1.93,2.66,5.67,5.67,0,0,1-3.29.9,5.36,5.36,0,0,1-4.62-2,6.87,6.87,0,0,1-1.19-4.13,6.62,6.62,0,0,1,1.56-4.67A5.15,5.15,0,0,1,153.83,88a5.32,5.32,0,0,1,4.22,1.77q1.55,1.77,1.48,5.41h-7.95a3.27,3.27,0,0,0,.77,2.2,2.41,2.41,0,0,0,1.83.78,1.94,1.94,0,0,0,1.25-.41A2.45,2.45,0,0,0,156.2,96.48Zm.18-3.2a3,3,0,0,0-.71-2.09,2.18,2.18,0,0,0-1.65-.72,2.24,2.24,0,0,0-1.72.75,2.94,2.94,0,0,0-.66,2.06Zm7.61,7h-3.17v-12h3V90a5.15,5.15,0,0,1,1.35-1.6A2.6,2.6,0,0,1,166.5,88a4,4,0,0,1,2.09.6l-1,2.76a2.86,2.86,0,0,0-1.49-.51,1.73,1.73,0,0,0-1.13.37,2.48,2.48,0,0,0-.74,1.32,19.47,19.47,0,0,0-.26,4Zm10-12h3v1.76a4.3,4.3,0,0,1,1.56-1.46,4.25,4.25,0,0,1,2.18-.57,4.57,4.57,0,0,1,3.54,1.64,6.63,6.63,0,0,1,1.46,4.56,6.83,6.83,0,0,1-1.47,4.67,4.57,4.57,0,0,1-3.56,1.66,4,4,0,0,1-1.8-.4,6,6,0,0,1-1.7-1.35v6H174Zm3.14,5.79a4.65,4.65,0,0,0,.8,3,2.47,2.47,0,0,0,2,1,2.27,2.27,0,0,0,1.83-.88,4.56,4.56,0,0,0,.74-2.91,4.29,4.29,0,0,0-.76-2.8,2.33,2.33,0,0,0-1.87-.91,2.42,2.42,0,0,0-1.93.9A4,4,0,0,0,177.11,94.1Zm12.95,6.2h-3.17v-12h3V90a5.15,5.15,0,0,1,1.35-1.6,2.6,2.6,0,0,1,1.38-.38,4,4,0,0,1,2.09.6l-1,2.76a2.86,2.86,0,0,0-1.49-.51,1.73,1.73,0,0,0-1.13.37,2.48,2.48,0,0,0-.74,1.32,19.47,19.47,0,0,0-.26,4Zm4.07-6.16a6.45,6.45,0,0,1,.78-3.06,5.39,5.39,0,0,1,2.2-2.26,6.59,6.59,0,0,1,3.2-.78,6,6,0,0,1,4.46,1.77,6.65,6.65,0,0,1,0,9,5.89,5.89,0,0,1-4.41,1.78,7.08,7.08,0,0,1-3.15-.74,5.2,5.2,0,0,1-2.27-2.18A7.34,7.34,0,0,1,194.13,94.14Zm3.25.17a4,4,0,0,0,.85,2.73,2.71,2.71,0,0,0,2.09.95A2.67,2.67,0,0,0,202.4,97a4,4,0,0,0,.84-2.76,4,4,0,0,0-.84-2.71,2.66,2.66,0,0,0-2.08-.94,2.7,2.7,0,0,0-2.09.94A4,4,0,0,0,197.38,94.31Zm21.45,6h-3V98.54a4.76,4.76,0,0,1-1.74,1.53,4.46,4.46,0,0,1-2,.5,4.56,4.56,0,0,1-3.54-1.66,6.79,6.79,0,0,1-1.47-4.65,6.72,6.72,0,0,1,1.43-4.63A4.69,4.69,0,0,1,212.18,88a4.47,4.47,0,0,1,3.47,1.67v-6h3.18Zm-8.47-6.25a5.49,5.49,0,0,0,.53,2.77A2.39,2.39,0,0,0,213,98.06a2.34,2.34,0,0,0,1.87-.92,4.34,4.34,0,0,0,.76-2.79,4.65,4.65,0,0,0-.74-3,2.35,2.35,0,0,0-1.91-.91,2.39,2.39,0,0,0-1.89.9A4,4,0,0,0,210.36,94.05Zm18.32,6.25V98.5A4.6,4.6,0,0,1,227,100a4.8,4.8,0,0,1-2.25.55,4.4,4.4,0,0,1-2.16-.53,3.09,3.09,0,0,1-1.39-1.49,6.56,6.56,0,0,1-.43-2.65V88.31h3.17v5.51a16,16,0,0,0,.17,3.1,1.75,1.75,0,0,0,.64.91,2,2,0,0,0,1.18.32,2.46,2.46,0,0,0,1.45-.44,2.32,2.32,0,0,0,.88-1.1,12.78,12.78,0,0,0,.24-3.24V88.31h3.17v12Zm15.53-8.44-3.13.56a2.23,2.23,0,0,0-.72-1.41,2.12,2.12,0,0,0-1.44-.47,2.39,2.39,0,0,0-1.9.82,4.16,4.16,0,0,0-.7,2.73,4.94,4.94,0,0,0,.71,3A2.39,2.39,0,0,0,239,98a2.15,2.15,0,0,0,1.48-.51,3.05,3.05,0,0,0,.81-1.77l3.12.53a5.5,5.5,0,0,1-1.86,3.24,5.77,5.77,0,0,1-3.69,1.09,5.48,5.48,0,0,1-4.2-1.66,7.56,7.56,0,0,1,0-9.21A5.54,5.54,0,0,1,238.87,88a5.77,5.77,0,0,1,3.48.95A5.15,5.15,0,0,1,244.21,91.86ZM251,88.31v2.53h-2.17v4.83a12.7,12.7,0,0,0,.06,1.72.67.67,0,0,0,.28.39.89.89,0,0,0,.54.16,4.22,4.22,0,0,0,1.28-.3l.27,2.46a6.45,6.45,0,0,1-2.51.47,4,4,0,0,1-1.55-.28,2.39,2.39,0,0,1-1-.75,3,3,0,0,1-.44-1.24,15.06,15.06,0,0,1-.1-2.23V90.84h-1.46V88.31h1.46V85.93l3.18-1.85v4.23Zm-.08,8.57,3.19-.49a2.32,2.32,0,0,0,.82,1.41,2.77,2.77,0,0,0,1.74.48,3.13,3.13,0,0,0,1.85-.45,1,1,0,0,0,.42-.85.85.85,0,0,0-.23-.6,2.56,2.56,0,0,0-1.06-.42,16.79,16.79,0,0,1-4.86-1.54,3.1,3.1,0,0,1-1.43-2.7,3.33,3.33,0,0,1,1.23-2.62A5.81,5.81,0,0,1,256.37,88a6.71,6.71,0,0,1,3.66.8,4.15,4.15,0,0,1,1.64,2.37l-3,.56a1.82,1.82,0,0,0-.73-1.08,2.68,2.68,0,0,0-1.52-.37,3.49,3.49,0,0,0-1.8.35.76.76,0,0,0-.36.64.71.71,0,0,0,.32.58,11.66,11.66,0,0,0,3,.89,9,9,0,0,1,3.55,1.41,2.94,2.94,0,0,1,1,2.36,3.61,3.61,0,0,1-1.38,2.83,6.07,6.07,0,0,1-4.07,1.19,6.71,6.71,0,0,1-3.88-1A4.63,4.63,0,0,1,250.88,96.88Z"/></svg>