<svg xmlns="http://www.w3.org/2000/svg" xmlns:xlink="http://www.w3.org/1999/xlink" version="1.1" style="" xml:space="preserve" width="345.42857142857133" height="133"><rect id="backgroundrect" width="100%" height="100%" x="0" y="0" fill="none" stroke="none" class="" style=""/>
<style type="text/css">
	.st0{fill:#00427C;}
	.st1{fill:none;}
	.st2{fill:#C6171E;}
	.st3{fill:#004179;}
	.st4{fill:#C62C1E;}
	.st5{fill:#FFFFFF;}
	.st6{fill:#FFFFFF;stroke:#00427C;stroke-miterlimit:10;}
	.st7{fill:none;stroke:#CE131C;stroke-width:3.9685;stroke-miterlimit:10;}
</style>

<g class="currentLayer" style=""><title>Layer 1</title>
	
	
<g class=""><g id="svg_2" opacity="1" class="">
		<path class="st0" d="M80,14.87143282890321 h-7.8 c0,17.2 -14.1,31.3 -31.3,31.3 c-17.3,0 -31.3,-14.1 -31.3,-31.3 h-7.8 c0,20.2 15.5,36.9 35.2,38.9 v31.5 h7.8 v-31.5 C64.60000000000002,51.77143282890319 80,35.0714328289032 80,14.87143282890321 z" id="svg_3" opacity="1"/>
		<path class="st0" d="M126.69999999999999,89.17143282890322 c-21.6,0 -39.1,-17.5 -39.1,-39.1 c0,-21.6 17.6,-39.1 39.1,-39.1 c21.6,0 39.1,17.6 39.1,39.1 C165.8,71.67143282890322 148.3,89.17143282890322 126.69999999999999,89.17143282890322 zM126.69999999999999,18.771432828903187 c-17.3,0 -31.3,14 -31.3,31.3 c0,17.3 14,31.3 31.3,31.3 c17.3,0 31.3,-14 31.3,-31.3 C158,32.77143282890319 144,18.771432828903187 126.69999999999999,18.771432828903187 z" id="svg_4" opacity="1"/>
		<rect x="250.5" y="0.9714267253875732" class="st0" width="7.800000190734863" height="7.800000190734863" id="svg_5" opacity="1"/>
		<rect x="308.9000244140625" y="0.9714267253875732" class="st0" width="7.800000190734863" height="7.800000190734863" id="svg_6" opacity="1"/>
		<path class="st0" d="M219.2,81.37143282890321 c-17.3,0 -31.3,-14 -31.3,-31.3 v-35.2 h-7.8 v35.2 c0,21.6 17.5,39.1 39.1,39.1 c20.1,0 36.7,-15.2 38.9,-34.7 c-2.7,-0.2 -5.3,-0.4 -7.8,-0.7000000000000002 C248.39999999999998,69.27143282890319 235.2,81.37143282890321 219.2,81.37143282890321 z" id="svg_7" opacity="1"/>
		<path class="st1" d="M250.5,37.5714328289032 c-1.5,0.1 -3,0.3000000000000001 -4.4,0.5 c-15.1,1.9 -17.1,4.2 -17.1,6.2 c0,2 2,4.4 17.1,6.2 c1.4,0.2 2.8,0.3000000000000001 4.3,0.5 c0,-0.3000000000000001 0,-0.6000000000000002 0,-0.9 V37.5714328289032 z" id="svg_8" opacity="1"/>
		<path class="st1" d="M316.70000000000005,50.87143282890321 c1.4,-0.1 2.7,-0.3000000000000001 4,-0.4 c15.1,-1.8 17.1,-4.2 17.1,-6.2 c0,-2 -2,-4.4 -17.1,-6.2 c-1.3,-0.2 -2.6,-0.3000000000000001 -4,-0.4 v6.7 V50.87143282890321 z" id="svg_9" opacity="1"/>
		<path class="st1" d="M308.9,36.971432828903176 c-7.7,-0.5 -16.4,-0.8 -25.4,-0.8 c-8.9,0 -17.5,0.3000000000000001 -25.1,0.8 v13.1 c0,0.5 -0.1,1 -0.1,1.5 c7.6,0.5 16.2,0.8 25.2,0.8 c9,0 17.7,-0.3000000000000001 25.4,-0.8 v-7.3 V36.971432828903176 z" id="svg_10" opacity="1"/>
		<path class="st0" d="M250.5,14.87143282890321 v19.8 v2.9 v12.5 c0,0.3000000000000001 0,0.6000000000000002 0,0.9 c2.5,0.2 5.1,0.5 7.8,0.6000000000000002 c0,-0.5 0.1,-1 0.1,-1.5 v-13.1 v-2.9 v-19.2 H250.5 z" id="svg_11" opacity="1"/>
		<path class="st0" d="M308.9,85.27143282890319 h7.8 v-31.5 c-2.5,0.3000000000000001 -5.1,0.5 -7.8,0.7000000000000002 V85.27143282890319 z" id="svg_12" opacity="1"/>
		<path class="st0" d="M308.9,14.87143282890321 v19.2 v2.9 v7.3 v7.3 c2.7,-0.2 5.4,-0.4 7.8,-0.6000000000000002 v-6.7 V37.5714328289032 v-2.9 v-19.9 H308.9 z" id="svg_13" opacity="1"/>
		<path class="st2" d="M283.5,36.17143282890322 c9,0 17.7,0.3000000000000001 25.4,0.8 v-2.9 c-7.9,-0.6000000000000002 -16.5,-0.9 -25.4,-0.9 c-8.8,0 -17.3,0.3000000000000001 -25.1,0.9 v2.9 C266,36.471432828903176 274.6,36.17143282890322 283.5,36.17143282890322 z" id="svg_14" opacity="1"/>
		<path class="st2" d="M325,35.77143282890319 c-2.6,-0.4 -5.4,-0.7000000000000002 -8.3,-1 v2.9 c1.4,0.1 2.7,0.3000000000000001 4,0.4 c15.1,1.9 17.1,4.2 17.1,6.2 c0,2 -2,4.4 -17.1,6.2 c-1.3,0.2 -2.6,0.3000000000000001 -4,0.4 c-2.5,0.2 -5.1,0.5 -7.8,0.6000000000000002 c-7.7,0.5 -16.4,0.8 -25.4,0.8 c-8.9,0 -17.5,-0.3000000000000001 -25.2,-0.8 c-2.7,-0.2 -5.3,-0.4 -7.8,-0.6000000000000002 c-1.5,-0.1 -2.9,-0.3000000000000001 -4.3,-0.5 c-15.1,-1.8 -17.1,-4.2 -17.1,-6.2 c0,-2 2,-4.4 17.1,-6.2 c1.4,-0.2 2.9,-0.3000000000000001 4.4,-0.5 v-2.9 c-3.1,0.3000000000000001 -6,0.7000000000000002 -8.7,1.1 c-16.8,2.5 -19.1,5.7 -19.1,8.5 c0,2.8 2.3,6 19.1,8.5 c2.6,0.4 5.4,0.7000000000000002 8.4,1 c2.5,0.3000000000000001 5.1,0.5 7.8,0.7000000000000002 c7.8,0.6000000000000002 16.4,0.9 25.4,0.9 c9,0 17.6,-0.3000000000000001 25.4,-0.9 c2.7,-0.2 5.3,-0.4 7.8,-0.7000000000000002 c2.9,-0.3000000000000001 5.7,-0.6000000000000002 8.3,-1 c16.8,-2.5 19.1,-5.7 19.1,-8.5 C344.1,41.471432828903176 341.79999999999995,38.27143282890319 325,35.77143282890319 z" id="svg_15" opacity="1"/>
	</g><g id="svg_16" opacity="1" class="">
		<path class="st0" d="M58.80000000000001,103.97143282890318 c-5.8,0 -10.6,4.7 -10.6,10.4 c0,5.6 4.8,10.4 10.6,10.4 c2.4,0 4.8,-0.9 6.7,-2.5 l0.1,-0.1 v-2.4 l-0.4,0.4 c-1.4,1.7000000000000002 -4.2,3 -6.5,3 c-2.1,0 -4.5,-1 -6.2,-2.7 c-1.7000000000000002,-1.6 -2.6,-3.8 -2.6,-6 c0,-4.8 4,-8.9 8.8,-8.9 c2.4,0 5,1.2 6.5,3.1 l0.4,0.4 v-2.4 l-0.1,-0.1 C63.69999999999999,104.97143282890318 61.30000000000001,103.97143282890318 58.80000000000001,103.97143282890318 z" id="svg_17" opacity="1"/>
		<path class="st0" d="M75,111.67143282890322 c-3.6,0 -6.5,3 -6.5,6.6 c0,3.6 2.9,6.5 6.5,6.5 c3.7,0 6.6,-2.9 6.6,-6.6 C81.60000000000002,114.5714328289032 78.69999999999999,111.67143282890322 75,111.67143282890322 zM80,118.27143282890319 c0,2.8 -2.2,5 -5.1,5 c-2.7,0 -4.9,-2.2 -4.9,-5 c0,-2.8 2.2,-5.1 4.9,-5.1 C77.89999999999998,113.17143282890322 80,115.37143282890321 80,118.27143282890319 z" id="svg_18" opacity="1"/>
		<path class="st0" d="M89.5,111.67143282890322 c-1.4,0 -2.7,0.6000000000000002 -3.5,1.7000000000000002 v-1.5 h-1.6 V124.5714328289032 h1.6 v-6.2 c0,-3.5 1.1,-5.1 3.4,-5.1 c2.5,0 2.7,1.7000000000000002 2.7,3.8 v7.6 h1.6 v-7.6 C93.80000000000001,114.47143282890318 93.30000000000001,111.67143282890322 89.5,111.67143282890322 z" id="svg_19" opacity="1"/>
		<path class="st0" d="M102.69999999999999,111.67143282890322 c-1.4,0 -2.7,0.6000000000000002 -3.5,1.7000000000000002 v-1.5 h-1.6 V124.5714328289032 h1.6 v-6.2 c0,-3.5 1.1,-5.1 3.4,-5.1 c2.5,0 2.7,1.7000000000000002 2.7,3.8 v7.6 h1.6 v-7.6 C106.89999999999998,114.47143282890318 106.39999999999998,111.67143282890322 102.69999999999999,111.67143282890322 z" id="svg_20" opacity="1"/>
		<path class="st0" d="M115.89999999999998,111.67143282890322 c-3.5,0 -6.1,2.8 -6.1,6.5 c0,3.8 2.6,6.6 6.1,6.6 c2.5,0 4.5,-1.2 5.6,-3.4 l0.1,-0.2 l-1.3,-0.8 l-0.1,0.2 c-0.9,1.7000000000000002 -2.4,2.7 -4.1,2.7 c-1.3,0 -2.5,-0.5 -3.4,-1.4 c-0.8,-0.9 -1.3,-2 -1.3,-3.4 h10.6 l0,-0.2 c0,-2 -0.6000000000000002,-3.8 -1.9,-5 C119,112.27143282890319 117.5,111.67143282890322 115.89999999999998,111.67143282890322 zM111.39999999999998,117.0714328289032 c0.3000000000000001,-2.1 2.3,-3.8 4.5,-3.8 c2.4,0 4.1,1.9 4.4,3.8 H111.39999999999998 z" id="svg_21" opacity="1"/>
		<path class="st0" d="M130.7,123.27143282890319 c-2.6,0 -4.8,-2.3 -4.8,-5.1 c0,-2.8 2.2,-5 4.8,-5 c1.6,0 3,0.6000000000000002 4.1,1.9 l0.3000000000000001,0.4 v-2.2 l-0.1,-0.1 c-1.2,-1 -2.7,-1.5 -4.4,-1.5 c-3.6,0 -6.5,2.9 -6.5,6.5 c0,3.7 2.8,6.6 6.4,6.6 c1.7000000000000002,0 3.3,-0.6000000000000002 4.6,-1.7000000000000002 l0.1,-0.1 v-2.3 l-0.4,0.4 C133.89999999999998,122.47143282890318 132.3,123.27143282890319 130.7,123.27143282890319 z" id="svg_22" opacity="1"/>
		<polygon class="st0" points="140.89999389648438,107.5714328289032 139.39999389648438,107.5714328289032 139.39999389648438,111.97142672538757 138,111.97142672538757 138,113.47142672538757 139.39999389648438,113.47142672538757 139.39999389648438,124.5714328289032 140.89999389648438,124.5714328289032 140.89999389648438,113.47142672538757 143.10000610351562,113.47142672538757 143.10000610351562,111.97142672538757 140.89999389648438,111.97142672538757 " id="svg_23" opacity="1"/>
		<rect x="146.39999389648438" y="111.97142672538757" class="st0" width="1.600000023841858" height="12.600000381469727" id="svg_24" opacity="1"/>
		<path class="st0" d="M147.2,106.77143282890319 c-0.7000000000000002,0 -1.3,0.6000000000000002 -1.3,1.3 c0,0.7000000000000002 0.6000000000000002,1.3 1.3,1.3 c0.7000000000000002,0 1.3,-0.6000000000000002 1.3,-1.3 C148.39999999999998,107.37143282890321 147.89999999999998,106.77143282890319 147.2,106.77143282890319 z" id="svg_25" opacity="1"/>
		<path class="st0" d="M157,111.67143282890322 c-1.4,0 -2.7,0.6000000000000002 -3.5,1.7000000000000002 v-1.5 h-1.6 V124.5714328289032 h1.6 v-6.2 c0,-3.5 1.1,-5.1 3.4,-5.1 c2.5,0 2.7,1.7000000000000002 2.7,3.8 v7.6 h1.6 v-7.6 C161.2,114.47143282890318 160.7,111.67143282890322 157,111.67143282890322 z" id="svg_26" opacity="1"/>
		<path class="st0" d="M174.5,113.77143282890319 c-1.2,-1.4 -2.6,-2.1 -4.4,-2.1 c-3.6,0 -6.3,2.8 -6.3,6.5 c0,3.7 2.6,6.6 6.1,6.6 c1.7000000000000002,0 3.4,-0.8 4.6,-2.1 v1 c0,1.8 -0.2,3.2 -1,4.5 c-0.8,1.1 -2.1,1.7000000000000002 -3.7,1.7000000000000002 c-2.5,0 -4.4,-1.6 -4.5,-3.9 l0,-0.2 h-1.6 l0,0.2 c0.2,3.2 2.7,5.4 6.2,5.4 c2.1,0 3.9,-0.9 5,-2.4 c1.2,-1.6 1.2,-3.3 1.2,-5.3 v-11.8 h-1.6 V113.77143282890319 zM174.60000000000002,118.0714328289032 c0,2.6 -1.4,5.3 -4.6,5.3 c-3,0 -4.6,-2.6 -4.6,-5.1 c0,-2.4 1.7000000000000002,-5 4.5,-5 C172.7,113.17143282890322 174.60000000000002,115.17143282890322 174.60000000000002,118.0714328289032 z" id="svg_27" opacity="1"/>
		<polygon class="st0" points="189.79998779296875,107.5714328289032 188.20001220703125,107.5714328289032 188.20001220703125,111.97142672538757 186.89999389648438,111.97142672538757 186.89999389648438,113.47142672538757 188.20001220703125,113.47142672538757 188.20001220703125,124.5714328289032 189.79998779296875,124.5714328289032 189.79998779296875,113.47142672538757 191.89999389648438,113.47142672538757 191.89999389648438,111.97142672538757 189.79998779296875,111.97142672538757 " id="svg_28" opacity="1"/>
		<path class="st0" d="M200,111.67143282890322 c-1.4,0 -2.7,0.6000000000000002 -3.5,1.7000000000000002 v-11 h-1.6 V124.5714328289032 h1.6 v-6.2 c0,-3.5 1.1,-5.1 3.4,-5.1 c2.5,0 2.7,1.7000000000000002 2.7,3.8 v7.6 h1.6 v-7.6 C204.2,114.47143282890318 203.7,111.67143282890322 200,111.67143282890322 z" id="svg_29" opacity="1"/>
		<path class="st0" d="M213.10000000000002,111.67143282890322 c-3.5,0 -6.1,2.8 -6.1,6.5 c0,3.8 2.6,6.6 6.1,6.6 c2.5,0 4.5,-1.2 5.6,-3.4 l0.1,-0.2 l-1.3,-0.8 l-0.1,0.2 c-0.9,1.7000000000000002 -2.4,2.7 -4.1,2.7 c-1.3,0 -2.5,-0.5 -3.4,-1.4 c-0.8,-0.9 -1.3,-2 -1.3,-3.4 h10.6 l0,-0.2 c0,-2 -0.6000000000000002,-3.8 -1.9,-5 C216.2,112.27143282890319 214.8,111.67143282890322 213.10000000000002,111.67143282890322 zM208.60000000000002,117.0714328289032 c0.3000000000000001,-2.1 2.3,-3.8 4.5,-3.8 c2.4,0 4.1,1.9 4.4,3.8 H208.60000000000002 z" id="svg_30" opacity="1"/>
		<polygon class="st0" points="255.39999389648438,104.27144503593445 253.70001220703125,104.27144503593445 248.29998779296875,120.97142672538757 240.89999389648438,102.97142672538757 233.5,120.97142672538757 228,104.27144503593445 226.29998779296875,104.27144503593445 233.20001220703125,125.5714328289032 240.79998779296875,107.17143893241882 248.39999389648438,125.5714328289032 255.29998779296875,104.47142672538757 " id="svg_31" opacity="1"/>
		<path class="st0" d="M261.6,111.67143282890322 c-3.6,0 -6.5,3 -6.5,6.6 c0,3.6 2.9,6.5 6.5,6.5 c3.7,0 6.6,-2.9 6.6,-6.6 C268.20000000000005,114.5714328289032 265.29999999999995,111.67143282890322 261.6,111.67143282890322 zM266.70000000000005,118.27143282890319 c0,2.8 -2.2,5 -5.1,5 c-2.7,0 -4.9,-2.2 -4.9,-5 c0,-2.8 2.2,-5.1 4.9,-5.1 C264.5,113.17143282890322 266.70000000000005,115.37143282890321 266.70000000000005,118.27143282890319 z" id="svg_32" opacity="1"/>
		<path class="st0" d="M275.6,111.67143282890322 c-1,0 -1.9,0.5 -2.5,1.3 v-1.1 h-1.6 V124.5714328289032 h1.6 l0,-6.7 c0,-1.3 0,-3.2 0.9,-4.1 c0.4,-0.4 0.8,-0.5 1.4,-0.5 c0.3000000000000001,0 0.5,0.1 0.7000000000000002,0.2 l0.2,0.1 l0.8,-1.4 l-0.2,-0.1 C276.5,111.77143282890319 276,111.67143282890322 275.6,111.67143282890322 z" id="svg_33" opacity="1"/>
		<rect x="280.70001220703125" y="102.37142062187195" class="st0" width="1.600000023841858" height="22.100000381469727" id="svg_34" opacity="1"/>
		<path class="st0" d="M296.1,102.37143282890321 v11.3 c-1.1,-1.3 -2.7,-2 -4.5,-2 c-3.6,0 -6.2,2.7 -6.2,6.5 c0,3.8 2.6,6.6 6.2,6.6 c1.8,0 3.5,-0.8 4.5,-2.1 v1.8 h1.6 v-22.1 H296.1 zM296.20000000000005,118.0714328289032 c0,2.6 -1.4,5.3 -4.6,5.3 c-3,0 -4.6,-2.6 -4.6,-5.1 c0,-2.4 1.7000000000000002,-5 4.5,-5 C294.20000000000005,113.17143282890322 296.20000000000005,115.17143282890322 296.20000000000005,118.0714328289032 z" id="svg_35" opacity="1"/>
	</g></g></g></svg>